<?xml version="1.0" encoding="UTF-8"?>
	<svg xmlns:xlink="http://www.w3.org/1999/xlink" 
	xmlns="http://www.w3.org/2000/svg" 
	width="1000px" height="1000px"><circle cx="500" cy="500" r="200" stroke="black" stroke-width="1" fill="none"/><path d="M290.05659609636,495.12484283794 A210 210 1 0 1 290.58631486021,484.31853080307"
				fill="none" stroke="#FF4500" stroke-width="10" opacity="0.4" /><path d="M311.38340647359,407.67567684249 A210 210 1 0 1 650.73558509768,353.78514649578"
				fill="none" stroke="#FF4500" stroke-width="10" opacity="0.4" /><path d="M651.61790433215,354.70027155591 A210 210 1 0 1 658.35390394273,362.07233379015"
				fill="none" stroke="#FF4500" stroke-width="10" opacity="0.4" /><path d="M684.77653585595,400.2120658743 A210 210 1 0 1 706.74282117801,463.15701028205"
				fill="none" stroke="#1E90FF" stroke-width="10" opacity="0.4" /><path d="M298.78915115045,439.8818304899 A210 210 1 0 1 307.52867875046,416.00719973441"
				fill="none" stroke="#FF4500" stroke-width="10" opacity="0.4" /><path d="M317.4079989761,603.73119666758 A210 210 1 0 1 290.13874234916,507.63233497739"
				fill="none" stroke="#F52887" stroke-width="10" opacity="0.4" /><path d="M422.22870009555,695.06825705679 A210 210 1 0 1 317.4084639308,603.73201509607"
				fill="none" stroke="#73AC13" stroke-width="10" opacity="0.4" /><path d="M674.95821340797,616.14483871912 A210 210 1 0 1 434.68801832503,699.58543295964"
				fill="none" stroke="#0000FF" stroke-width="10" opacity="0.4" /><path d="M434.68757102571,699.58528658566 A210 210 1 0 1 427.50627635144,697.09048691291"
				fill="none" stroke="#FF00FF" stroke-width="10" opacity="0.4" /><circle cx="706.08112079885" cy="459.61966257833" r="6" stroke="black"
			stroke-width="1" fill="white"/><text x="726.08112079885" y="464.61966257833">human</text><circle cx="468.83737180499" cy="292.32503616473" r="6" stroke="black"
			stroke-width="1" fill="white"/><text x="378.83737180499" y="297.32503616473">Drosophila</text><circle cx="290.44597730011" cy="486.32112686313" r="6" stroke="black"
			stroke-width="1" fill="white"/><text x="200.44597730011" y="491.32112686313">C. elegans</text><circle cx="298.92954874874" cy="439.41391551178" r="6" stroke="black"
			stroke-width="1" fill="white"/><text x="235.92954874874" y="444.41391551178">Daphnia</text><circle cx="708.23449662397" cy="472.8265862328" r="6" stroke="black"
			stroke-width="1" fill="white"/><text x="728.23449662397" y="477.8265862328">Plasmodium</text><circle cx="654.51011151701" cy="357.77965884234" r="6" stroke="black"
			stroke-width="1" fill="white"/><text x="674.51011151701" y="362.77965884234">Taenia</text><circle cx="311.72985278204" cy="593.02876795126" r="6" stroke="black"
			stroke-width="1" fill="white"/><text x="194.72985278204" y="598.02876795126">Saccharomyces</text><circle cx="327.60794469151" cy="619.92072075549" r="6" stroke="black"
			stroke-width="1" fill="white"/><text x="291.60794469151" y="624.92072075549">Acer</text><circle cx="661.91630573906" cy="633.72774557218" r="6" stroke="black"
			stroke-width="1" fill="white"/><text x="681.91630573906" y="638.72774557218">E. coli</text><path d="M303.41962400887,536.82602035499 Q500,500  696.13247527748,460.85856234717" fill="none" stroke="black" stroke-width="4" style="opacity:0.1" /><path d="M697.54552040714,468.76272471754 Q500,500  696.1179878113,460.78603747582" fill="none" stroke="black" stroke-width="4" style="opacity:0.1" /><path d="M645.4931569571,362.77120827371 Q500,500  696.1179878113,460.78603747582" fill="none" stroke="black" stroke-width="4" style="opacity:0.1" /><path d="M645.4931569571,362.77120827371 Q500,500  696.12057996344,460.79900365037" fill="none" stroke="black" stroke-width="4" style="opacity:0.1" /><path d="M300.12603352475,492.9008785437 Q500,500  696.1179878113,460.78603747582" fill="none" stroke="black" stroke-width="4" style="opacity:0.1" /><path d="M312.26002212302,431.05291371819 Q500,500  696.14111107164,460.90186004959" fill="none" stroke="black" stroke-width="4" style="opacity:0.1" /><path d="M312.25971308436,431.05375522312 Q500,500  696.14111107164,460.90186004959" fill="none" stroke="black" stroke-width="4" style="opacity:0.1" /><path d="M312.26017664376,431.05249296625 Q500,500  696.14111107164,460.90186004959" fill="none" stroke="black" stroke-width="4" style="opacity:0.1" /><path d="M312.25909501836,431.05543823714 Q500,500  696.14426491593,460.91768506612" fill="none" stroke="black" stroke-width="4" style="opacity:0.1" /><path d="M312.25909501836,431.05543823714 Q500,500  696.14435250449,460.91812465354" fill="none" stroke="black" stroke-width="4" style="opacity:0.1" /><path d="M312.25940404947,431.05459672944 Q500,500  696.14426491593,460.91768506612" fill="none" stroke="black" stroke-width="4" style="opacity:0.1" /><path d="M312.25940404947,431.05459672944 Q500,500  696.14417732638,460.91724547889" fill="none" stroke="black" stroke-width="4" style="opacity:0.1" /><path d="M312.25940404947,431.05459672944 Q500,500  696.14435250449,460.91812465354" fill="none" stroke="black" stroke-width="4" style="opacity:0.1" /><path d="M312.26064021165,431.05123071249 Q500,500  696.11908628551,460.79153159665" fill="none" stroke="black" stroke-width="4" style="opacity:0.1" /><path d="M300.12601761511,492.90132648984 Q500,500  696.11899841324,460.79109206586" fill="none" stroke="black" stroke-width="4" style="opacity:0.1" /><path d="M300.12593808195,492.90356622107 Q500,500  696.13479955278,460.87021078015" fill="none" stroke="black" stroke-width="4" style="opacity:0.1" /><path d="M300.12593808195,492.90356622107 Q500,500  696.12716632052,460.83196927235" fill="none" stroke="black" stroke-width="4" style="opacity:0.1" /><path d="M300.12593808195,492.90356622107 Q500,500  696.12742965955,460.83328792026" fill="none" stroke="black" stroke-width="4" style="opacity:0.1" /><path d="M300.12593808195,492.90356622107 Q500,500  696.12075567154,460.79988271925" fill="none" stroke="black" stroke-width="4" style="opacity:0.1" /><path d="M300.12593808195,492.90356622107 Q500,500  696.12027246479,460.79746528171" fill="none" stroke="black" stroke-width="4" style="opacity:0.1" /><path d="M300.12593808195,492.90356622107 Q500,500  696.12514709343,460.82185969726" fill="none" stroke="black" stroke-width="4" style="opacity:0.1" /><path d="M300.1358759252,492.6289819013 Q500,500  696.13479955278,460.87021078015" fill="none" stroke="black" stroke-width="4" style="opacity:0.1" /><path d="M648.17744315186,365.67410770452 Q500,500  696.12400556065,460.81614563564" fill="none" stroke="black" stroke-width="4" style="opacity:0.1" /><path d="M648.17744315186,365.67410770452 Q500,500  696.13159801267,460.85416674796" fill="none" stroke="black" stroke-width="4" style="opacity:0.1" /><path d="M648.06510215849,365.55028626733 Q500,500  696.12400556065,460.81614563564" fill="none" stroke="black" stroke-width="4" style="opacity:0.1" /><path d="M318.21228953418,583.38601995297 Q500,500  696.12409337677,460.81658517766" fill="none" stroke="black" stroke-width="4" style="opacity:0.1" /><path d="M304.2885190685,541.19485685858 Q500,500  696.12409337677,460.81658517766" fill="none" stroke="black" stroke-width="4" style="opacity:0.1" /><path d="M318.09622684614,583.13252860578 Q500,500  696.12409337677,460.81658517766" fill="none" stroke="black" stroke-width="4" style="opacity:0.1" /><path d="M300.16261470053,508.06346306937 Q500,500  696.12409337677,460.81658517766" fill="none" stroke="black" stroke-width="4" style="opacity:0.1" /><path d="M300.1923219884,508.76879738688 Q500,500  696.12409337677,460.81658517766" fill="none" stroke="black" stroke-width="4" style="opacity:0.1" /><path d="M303.00706580998,534.55117768189 Q500,500  696.12409337677,460.81658517766" fill="none" stroke="black" stroke-width="4" style="opacity:0.1" /><path d="M310.85352113438,564.98930321781 Q500,500  696.12409337677,460.81658517766" fill="none" stroke="black" stroke-width="4" style="opacity:0.1" /><path d="M300.16550073639,508.13467295368 Q500,500  696.12409337677,460.81658517766" fill="none" stroke="black" stroke-width="4" style="opacity:0.1" /><path d="M300.12624044148,492.89505524715 Q500,500  696.12462025283,460.81922243391" fill="none" stroke="black" stroke-width="4" style="opacity:0.1" /><path d="M300.12624044148,492.89505524715 Q500,500  696.13159801267,460.85416674796" fill="none" stroke="black" stroke-width="4" style="opacity:0.1" /><path d="M312.25955856644,431.05417597611 Q500,500  696.14338897614,460.91328920267" fill="none" stroke="black" stroke-width="4" style="opacity:0.1" /><path d="M300.12611308803,492.89863881355 Q500,500  696.13620255387,460.87724386312" fill="none" stroke="black" stroke-width="4" style="opacity:0.1" /><path d="M300.12611308803,492.89863881355 Q500,500  696.13629023307,460.87768343247" fill="none" stroke="black" stroke-width="4" style="opacity:0.1" /><path d="M300.12611308803,492.89863881355 Q500,500  696.13602719253,460.876364725" fill="none" stroke="black" stroke-width="4" style="opacity:0.1" /><path d="M300.41379003891,487.14135336179 Q500,500  696.13159801267,460.85416674796" fill="none" stroke="black" stroke-width="4" style="opacity:0.1" /><path d="M300.41387649761,487.14001145843 Q500,500  696.13159801267,460.85416674796" fill="none" stroke="black" stroke-width="4" style="opacity:0.1" /><path d="M300.41396296534,487.13866955565 Q500,500  696.13159801267,460.85416674796" fill="none" stroke="black" stroke-width="4" style="opacity:0.1" /><path d="M300.41422242265,487.1346438508 Q500,500  696.13159801267,460.85416674796" fill="none" stroke="black" stroke-width="4" style="opacity:0.1" /><path d="M300.13585940619,492.62942982538 Q500,500  696.1350626347,460.87152947938" fill="none" stroke="black" stroke-width="4" style="opacity:0.1" /><path d="M300.13585940619,492.62942982538 Q500,500  696.12742965955,460.83328792026" fill="none" stroke="black" stroke-width="4" style="opacity:0.1" /><path d="M300.1260494354,492.9004305976 Q500,500  696.12611287575,460.82669469845" fill="none" stroke="black" stroke-width="4" style="opacity:0.1" /><path d="M648.32065552495,365.83225743627 Q500,500  696.12057996344,460.79900365037" fill="none" stroke="black" stroke-width="4" style="opacity:0.1" /><path d="M648.32095621366,365.83258984439 Q500,500  696.12057996344,460.79900365037" fill="none" stroke="black" stroke-width="4" style="opacity:0.1" /><path d="M300.12595398657,492.90311827475 Q500,500  696.13734230656,460.88295828007" fill="none" stroke="black" stroke-width="4" style="opacity:0.1" />	
		</svg>